<svg xmlns="http://www.w3.org/2000/svg" xmlns:xlink="http://www.w3.org/1999/xlink" width="77.959" height="43.032" viewBox="0 0 77.959 43.032">
  <defs>
    <clipPath id="clip-path">
      <rect id="Rectangle_587" data-name="Rectangle 587" width="77.959" height="43.032" fill="none"/>
    </clipPath>
  </defs>
  <g id="Group_4197" data-name="Group 4197" clip-path="url(#clip-path)">
    <path id="Path_2598" data-name="Path 2598" d="M69,11.468H63.651c-2.378,0-4.37-2.413-6.48-4.967C54.652,3.454,51.8,0,47.377,0H22.014a8.935,8.935,0,0,0-8.28,5.532l-1.577,3.8a3.446,3.446,0,0,1-3.193,2.133A8.973,8.973,0,0,0,0,20.431v4.85a8.973,8.973,0,0,0,8.963,8.963H69a8.973,8.973,0,0,0,8.963-8.963v-4.85A8.973,8.973,0,0,0,69,11.468" transform="translate(0 0)" fill="#ffd100"/>
    <path id="Path_2599" data-name="Path 2599" d="M18.5,53.035c-.206-1.248-1.756-7.034-1.947-8.59h-.109v8.59H12.833v-17.4h3.613v6.125h.109c.117-.97,1.455-5.023,1.662-6.125h3.589c-.263,1.337-2.233,7.225-2.233,7.225s2.373,8.855,2.608,10.176Z" transform="translate(-7.695 -21.367)" fill="#040505"/>
    <rect id="Rectangle_585" data-name="Rectangle 585" width="3.569" height="23.688" transform="translate(15.828 7.98)" fill="#040505"/>
    <path id="Path_2600" data-name="Path 2600" d="M62.733,31.988a8.489,8.489,0,0,1-.165,1.873,1.949,1.949,0,0,1-.606,1.079,2.431,2.431,0,0,1-1.222.494,13.379,13.379,0,0,1-2.016.122H54V6.484h4.722a13.658,13.658,0,0,1,2.016.122,2.418,2.418,0,0,1,1.222.5,1.933,1.933,0,0,1,.606,1.068,8.332,8.332,0,0,1,.165,1.86Zm-5.163.486h1.154c.191,0,.308-.034.353-.1a.759.759,0,0,0,.065-.385V10.031a.763.763,0,0,0-.065-.385c-.045-.066-.162-.1-.353-.1H57.57Z" transform="translate(-32.382 -3.888)" fill="#040505"/>
    <path id="Path_2601" data-name="Path 2601" d="M111.836,9.436H109.4v26.12h-3.59V9.436h-2.431V6.483h8.453Z" transform="translate(-61.992 -3.888)" fill="#040505"/>
    <path id="Path_2602" data-name="Path 2602" d="M132.75,22.357a2.053,2.053,0,0,0-.595-1.1,2.3,2.3,0,0,0-1.2-.507,21.113,21.113,0,0,0-4.5,0,2.3,2.3,0,0,0-1.2.507,2.05,2.05,0,0,0-.594,1.1,8.92,8.92,0,0,0-.165,1.927V44.038h3.458V34.791h1.5v9.246h3.458V24.284a8.949,8.949,0,0,0-.165-1.927m-3.293,9.5h-1.5V24.284c0-.19.01-.228.048-.3.09-.164.51-.186.7-.186s.612.022.7.186c.038.07.048.107.048.3Z" transform="translate(-74.653 -12.37)" fill="#040505"/>
    <path id="Path_2603" data-name="Path 2603" d="M152.81,46.509l-1.43,6.526h-3.109l1.754-8.091-1.639-9.311h3.206l1.431,7.419,1.256-7.419H157.2l-1.559,9.311,1.849,8.091h-3.244Z" transform="translate(-88.909 -21.367)" fill="#040505"/>
    <rect id="Rectangle_586" data-name="Rectangle 586" width="3.569" height="17.401" transform="translate(69.152 14.267)" fill="#040505"/>
    <path id="Path_2604" data-name="Path 2604" d="M32.443,97.311a6.791,6.791,0,0,0,6.791-6.791H25.652a6.791,6.791,0,0,0,6.791,6.791" transform="translate(-15.382 -54.279)" fill="#040505"/>
    <path id="Path_2605" data-name="Path 2605" d="M146.783,97.311a6.791,6.791,0,0,0,6.791-6.791H139.992a6.791,6.791,0,0,0,6.791,6.791" transform="translate(-83.944 -54.279)" fill="#040505"/>
    <path id="Path_2606" data-name="Path 2606" d="M87.308,12.678v-2.2a8.917,8.917,0,0,0-.165-1.927,2.015,2.015,0,0,0-.606-1.1,2.36,2.36,0,0,0-1.212-.508,26.282,26.282,0,0,0-2.718-.12,13.24,13.24,0,0,0-1.993.12,2.345,2.345,0,0,0-1.2.508,1.956,1.956,0,0,0-.595,1.1,9.519,9.519,0,0,0-.155,1.927v1.719c0,.16,0,.787.005,1.511a11.417,11.417,0,0,0,1.195,5.03l2.011,4.037a11.393,11.393,0,0,1,1.195,5.079V32.3a.583.583,0,0,1-.029.255,1.2,1.2,0,0,1-1.451.034c-.065-.1-.066-.152-.066-.342V30.13h-3.5v2.2a8.944,8.944,0,0,0,.165,1.927,2.016,2.016,0,0,0,.606,1.1A2.359,2.359,0,0,0,80,35.867a26.159,26.159,0,0,0,2.718.12,13.18,13.18,0,0,0,1.993-.12,2.845,2.845,0,0,0,.311-.086l.019-.005a2.341,2.341,0,0,0,.585-.241l.032-.019a1.906,1.906,0,0,0,.252-.155,1.959,1.959,0,0,0,.6-1.1,9.552,9.552,0,0,0,.154-1.927V30.614c0-.158,0-.771-.005-1.482V27.878a11.4,11.4,0,0,0-1.217-5.123L83.453,18.8a11.408,11.408,0,0,1-1.217-5.105c0-.717,0-1.324,0-1.434v-1.7c0-.19-.012-.252.065-.342a1.045,1.045,0,0,1,.723-.227.961.961,0,0,1,.718.227c.065.1.066.152.066.342v2.118Z" transform="translate(-46.785 -4.09)" fill="#040505"/>
  </g>
</svg>
